<?xml version="1.0" encoding="utf-8"?>
<!-- Generator: Adobe Illustrator 25.2.1, SVG Export Plug-In . SVG Version: 6.00 Build 0)  -->
<svg version="1.1" id="Layer_1" xmlns="http://www.w3.org/2000/svg" xmlns:xlink="http://www.w3.org/1999/xlink" x="0px" y="0px"
	 viewBox="0 0 512 512" style="enable-background:new 0 0 512 512;" xml:space="preserve">
<style type="text/css">
	.st0{fill:#0C4C66;}
</style>
<path class="st0" d="M466.4,26.2c-26.5-8.5-62.5-13.9-101.4-15.2c-4.2-0.1-7.6,3.1-7.7,7.3s3.1,7.6,7.3,7.7
	C449.8,28.7,497,50.2,497,63.9c0,15.7-57.4,38.2-149.7,38.2c-85.7,0-144.4-19.7-149.4-36.4c-0.2-0.6-0.3-1.3-0.3-1.8
	c0-13.8,47.2-35.2,132.4-37.9c4.1-0.1,7.4-3.6,7.3-7.7c-0.1-4.1-3.6-7.4-7.7-7.3c-38.9,1.3-74.9,6.7-101.4,15.2
	c-29.8,9.6-45.6,22.7-45.6,37.7v53.7C96.8,114.9,0,133,0,170.6v277.9c0,70.4,329.4,70.9,329.4,0v-53.8
	c77.7,2.6,149.8-11.5,173.5-34.1c6.1-5.8,9.1-12.1,9.1-18.8V237.3c0-4.1-3.4-7.5-7.5-7.5s-7.5,3.4-7.5,7.5v11.9
	c0,2.4-1.5,5.1-4.5,7.9c-17.3,16.5-66.4,24.6-90.2,27.3c-23.9,2.7-49,3.5-72.9,2.7c0-2.1,0-74,0-77.6c47.2,1.6,130.8-3.6,167.6-29.4
	v22.2c0,4.1,3.4,7.5,7.5,7.5s7.5-3.4,7.5-7.5c0-7.8,0-132.4,0-138.3C512,48.9,496.2,35.8,466.4,26.2z M197.6,87.4
	c56,39.5,243.5,39.5,299.4,0v69.1c0,2.4-1.5,5.1-4.5,7.9c-12.2,11.6-41.7,19.1-58.2,22.4c-33.3,6.6-70.8,8.7-104.9,7.6v-23.9
	c0-38.2-93.7-49.9-131.7-52.2V87.4z M314.4,194.1v69.1c0,6.1-10.6,16.4-40.6,25.1c-60.1,17.5-158,17.5-218.1,0
	c-30-8.7-40.6-19-40.6-25.1v-69.1C71.3,233.9,259.3,233,314.4,194.1z M15,286.7c56.2,39.7,243.8,39.3,299.4,0v69.1
	c0,6.1-10.6,16.4-40.6,25.1c-60.1,17.5-158,17.5-218.1,0c-30-8.7-40.6-19-40.6-25.1V286.7z M55.6,145.5
	c60.3-17.5,158.3-17.4,218.1,0c30,8.7,40.6,19,40.6,25.1c0,15.7-57.4,38.2-149.7,38.2C71.9,208.8,15,186.1,15,170.6
	C15,164.4,25.6,154.2,55.6,145.5z M314.4,448.5c0,6.1-10.6,16.4-40.6,25.1c-60.1,17.5-158,17.5-218.1,0c-30-8.7-40.6-19-40.6-25.1
	v-69.1c54.8,38.7,242.5,40.1,299.4,0V448.5z M497,341.8c0,2.4-1.5,5.1-4.5,7.9c-18,17.2-83.4,32.7-163.2,30c0-2.1,0-74,0-77.6
	c71.3,2.4,139.1-9.3,167.6-29.4V341.8z"/>
</svg>
