<?xml version="1.0" encoding="utf-8"?>
<!-- Generator: Adobe Illustrator 25.2.1, SVG Export Plug-In . SVG Version: 6.00 Build 0)  -->
<svg version="1.1" id="Capa_1" xmlns="http://www.w3.org/2000/svg" xmlns:xlink="http://www.w3.org/1999/xlink" x="0px" y="0px"
	 viewBox="0 0 512 512" style="enable-background:new 0 0 512 512;" xml:space="preserve">
<style type="text/css">
	.st0{fill:#0C4C66;}
</style>
<g>
	<path class="st0" d="M15,91c8.3,0,15-6.7,15-15V30h46c8.3,0,15-6.7,15-15S84.3,0,76,0H15C6.7,0,0,6.7,0,15v61C0,84.3,6.7,91,15,91z
		"/>
	<path class="st0" d="M15,512h61c8.3,0,15-6.7,15-15s-6.7-15-15-15H30v-46c0-8.3-6.7-15-15-15s-15,6.7-15,15v61
		C0,505.3,6.7,512,15,512z"/>
	<path class="st0" d="M497,91c8.3,0,15-6.7,15-15V15c0-8.3-6.7-15-15-15h-61c-8.3,0-15,6.7-15,15s6.7,15,15,15h46v46
		C482,84.3,488.7,91,497,91z"/>
	<path class="st0" d="M497,421c-8.3,0-15,6.7-15,15v46h-46c-8.3,0-15,6.7-15,15s6.7,15,15,15h61c8.3,0,15-6.7,15-15v-61
		C512,427.7,505.3,421,497,421z"/>
	<path class="st0" d="M256,361c57.9,0,105-47.1,105-105s-47.1-105-105-105s-105,47.1-105,105S198.1,361,256,361z M256,181
		c41.4,0,75,33.6,75,75s-33.6,75-75,75s-75-33.6-75-75S214.6,181,256,181z"/>
	<path class="st0" d="M256,301c24.8,0,45-20.2,45-45s-20.2-45-45-45s-45,20.2-45,45S231.2,301,256,301z M256,241c8.3,0,15,6.7,15,15
		s-6.7,15-15,15s-15-6.7-15-15S247.7,241,256,241z"/>
	<path class="st0" d="M76,342.4c50.6,43.4,113.1,78.6,180,78.6c66.9,0,129.4-35.2,180-78.6c44.5-38.2,72-76,73.2-77.6
		c3.8-5.2,3.8-12.3,0-17.6c-1.1-1.6-28.7-39.4-73.2-77.6C385.4,126.2,322.9,91,256,91c-66.9,0-129.4,35.2-180,78.6
		c-44.5,38.2-72,76-73.2,77.6c-3.8,5.2-3.8,12.3,0,17.6C4,266.4,31.5,304.2,76,342.4L76,342.4z M256,121c63.7,0,122.1,38.6,159.9,71
		c29.6,25.3,51.6,51,62.1,64c-10.3,12.8-31.9,38-61,63.1c-41.7,36-98.9,71.9-161,71.9c-63.7,0-122.1-38.6-159.9-71
		c-29.6-25.3-51.6-51-62.1-64c10.3-12.8,31.9-38,61-63.1C136.7,157,193.9,121,256,121L256,121z"/>
</g>
</svg>
