<?xml version="1.0" encoding="utf-8"?>
<!-- Generator: Adobe Illustrator 25.2.1, SVG Export Plug-In . SVG Version: 6.00 Build 0)  -->
<svg version="1.1" id="light" xmlns="http://www.w3.org/2000/svg" xmlns:xlink="http://www.w3.org/1999/xlink" x="0px" y="0px"
	 viewBox="0 0 512 512" style="enable-background:new 0 0 512 512;" xml:space="preserve">
<style type="text/css">
	.st0{fill:#0C4C66;}
</style>
<path class="st0" d="M394.7,512h-384c-3.8,0-7.3-2-9.2-5.2s-2-7.3-0.2-10.6l192-352c3.7-6.8,15-6.8,18.7,0l192,352
	c1.8,3.3,1.7,7.3-0.2,10.6C401.9,510,398.4,512,394.7,512L394.7,512z M28.6,490.7h348.1l-174-319.1L28.6,490.7z"/>
<path class="st0" d="M501.3,512H394.7c-5.9,0-10.7-4.8-10.7-10.7s4.8-10.7,10.7-10.7h88.6l-98.7-179.4L344,395.4
	c-2.6,5.3-8.9,7.5-14.3,4.9c-5.3-2.6-7.5-8.9-4.9-14.3l49.7-102.7c1.7-3.6,5.3-5.9,9.3-6c4,0.2,7.7,2,9.6,5.5l117.3,213.3
	c1.8,3.3,1.8,7.3-0.2,10.6C508.6,510,505.1,512,501.3,512L501.3,512z"/>
<path class="st0" d="M202.7,160c-5.9,0-10.7-4.8-10.7-10.7V10.7C192,4.8,196.8,0,202.7,0h128c4.3,0,8.2,2.6,9.9,6.6
	c1.7,4,0.7,8.6-2.3,11.6l-35.1,35.1l35.1,35.1c3.1,3.1,4,7.6,2.3,11.6c-1.6,4-5.5,6.6-9.8,6.6H213.3v42.7
	C213.3,155.2,208.6,160,202.7,160L202.7,160z M213.3,85.3h91.6l-24.4-24.4c-4.2-4.2-4.2-10.9,0-15.1l24.4-24.5h-91.6V85.3z"/>
<path class="st0" d="M234.7,320c-0.3,0-0.5,0-0.8,0c-3.1-0.2-5.9-1.8-7.8-4.2l-23.5-31.3l-23.5,31.3c-1.9,2.5-4.7,4-7.8,4.2
	c-3.2,0.3-6.1-0.9-8.3-3.1L127.3,281c-4.2-4.2-4.2-10.9,0-15.1c4.2-4.2,10.9-4.2,15.1,0l27.1,27.1l24.6-32.8c4-5.4,13-5.4,17.1,0
	l24.6,32.8L263,266c4.2-4.2,10.9-4.2,15.1,0c4.2,4.2,4.2,10.9,0,15.1l-35.8,35.8C240.2,318.9,237.5,320,234.7,320L234.7,320z"/>
</svg>
