<?xml version="1.0" encoding="utf-8"?>
<!-- Generator: Adobe Illustrator 25.2.1, SVG Export Plug-In . SVG Version: 6.00 Build 0)  -->
<svg version="1.1" id="Layer_1" xmlns:svgjs="http://svgjs.com/svgjs"
	 xmlns="http://www.w3.org/2000/svg" xmlns:xlink="http://www.w3.org/1999/xlink" x="0px" y="0px" viewBox="0 0 512 512"
	 style="enable-background:new 0 0 512 512;" xml:space="preserve">
<style type="text/css">
	.st0{fill:#FFFFFF;}
</style>
<g>
	<g>
		<g>
			<path class="st0" d="M508.9,219.6c-0.4-2.3-1.6-4.3-3.4-5.8c-16.6-14-19.4-29.5-21.6-41.9l-0.3-1.6c-0.8-4.2-4.2-7.5-8.4-8.1
				c-1.5-0.2-3-0.3-4.6-0.3c-9.5,0-22.9,4-31.4,13c-1.5,1.5-2.4,3.5-2.7,5.6c-0.7,5.4-1.1,10.3-1.4,14.6
				c-1.2,16.4-2.3,18.1-7.3,19.7c-3.1,1-5.6,3.4-6.5,6.6c-4.7,15.1-10.9,29.6-18.5,43.2c-3.7-7.1-7.8-13.5-11.7-19.4
				c-9.4-14.5-16.8-26-14.2-40.3c8.2-46.1,4-80.9-12.4-103.3c-9.1-12.5-22.1-21-37.9-25c3.1-24.5,20.2-35.7,29.6-38.2
				c5.3-1.4,8.5-6.9,7.1-12.2c-1.4-5.3-6.9-8.5-12.2-7.1c-19.5,5.2-40.3,24.4-44.3,55c-16,0-30.5,4.8-42.4,14.4
				c-21.8,17.4-35,49.8-39.1,96.2c-1.3,14-10.3,22.1-22.8,33.4c-10.2,9.2-21.6,19.5-30.7,35c-11.3-4.6-23.5-7.6-36.2-8.7
				c3.6-23.6,20.2-34.3,29.4-36.8c5.3-1.4,8.5-6.9,7.1-12.2c-1.4-5.3-6.9-8.5-12.2-7.1c-5,1.3-10.1,3.6-15,6.8
				c-2.3-11.2-7.8-21.8-16.1-30.1c-11.2-11.2-26-17.3-41.8-17.3c-5.2,0-10.3,0.7-15.3,2c-3.5,0.9-6.2,3.6-7.1,7.1
				c-5.4,20.3,0.4,42.2,15.3,57.1c10.4,10.4,23.9,16.4,38.4,17.2c-1.3,4.1-2.2,8.5-2.8,13.2C51,248.9,0,302.9,0,368.6
				c0,68.8,56,124.8,124.8,124.8c25.6,0,50-7.6,70.8-22c3.3,1.4,6.6,2.8,9.9,4.1c30.1,11.9,60.5,17.9,90.4,17.9
				c48.1,0,92.7-15.7,129-45.4c38-31.1,66-77,81-132.9C510.8,296.8,515.1,253.9,508.9,219.6z M215.9,232.7
				c13.5-12.1,27.4-24.7,29.3-46.4c3.7-40.8,14.3-68.5,31.7-82.4c10.3-8.2,23.1-11.4,37.9-9.4c14.6,2,26,8.3,33.6,18.7
				c13,17.8,16,47.5,8.8,88c-3.9,22,6.8,38.5,17.1,54.6c5.8,9,11.7,18.3,15.8,29C356.4,333.5,305.2,369,249,382
				c0.5-4.5,0.7-9,0.7-13.5c0-45.1-24.1-84.7-60-106.6C197.2,249.6,206.6,241,215.9,232.7z M93.9,199.5
				c-8.4-8.4-12.5-20.2-11.2-31.8c1.4-0.1,2.8-0.2,4.2-0.2c10.4,0,20.3,4.1,27.7,11.5c8.4,8.4,12.5,20.2,11.2,31.8
				c-1.4,0.1-2.8,0.2-4.2,0.2h0C111.1,211,101.3,206.9,93.9,199.5z M124.8,473.4C67,473.4,20,426.4,20,368.6s47-104.8,104.8-104.8
				c57.8,0,104.8,47,104.8,104.8c0,5.8-0.5,11.5-1.4,17.2c-6.4,0.8-12.9,1.4-19.4,1.6c1.4-6.1,2.1-12.4,2.1-18.8
				c0-11.3-2.2-22.3-6.4-32.7c-2.1-5.1-7.9-7.6-13-5.5c-5.1,2.1-7.6,7.9-5.5,13c3.3,8,4.9,16.4,4.9,25.1c0,6.3-0.9,12.5-2.6,18.4
				c-14.3-0.9-28.6-3.3-42.8-7.1c-2.9-0.8-5.9-0.2-8.4,1.5c-8.9,6.3-17.8,14.2-23.2,29.5c-1.4,3.9-0.2,8.3,3,11
				c18.4,15.4,37.6,28.5,57.3,39.1C159.2,469.1,142.4,473.4,124.8,473.4z M486.6,309.9C459.2,412.3,387.9,473.4,296,473.4
				c-53.7,0-110.3-22-160.3-62.1c2.6-4.8,5.9-8,9.4-10.8c18.8,4.6,37.9,7,56.8,7c53.7,0,105.4-18.3,149.7-52.9
				c22.5-17.6,42-38.8,57.6-62.3c0.2-0.3,0.4-0.5,0.5-0.8c12.3-18.7,22.2-38.8,29.2-59.8c14-7.1,15.1-21.3,16.1-35.2
				c0.2-3.2,0.5-6.4,0.9-9.8c2.7-1.9,6.2-3.5,9.7-4.2c2.7,12.7,7.8,29,24.2,44.1C494.4,256,491,293.4,486.6,309.9z"/>
		</g>
	</g>
	<g>
		<g>
			<path class="st0" d="M322.5,115.1c-5.1-2.1-11,0.3-13.1,5.4s0.3,11,5.4,13.1c7.3,3.1,11.3,25,4.9,61.1c-1,5.4,2.7,10.6,8.1,11.6
				c0.6,0.1,1.2,0.2,1.8,0.2c4.8,0,9-3.4,9.8-8.3C345.1,165.8,346.8,125.3,322.5,115.1z"/>
		</g>
	</g>
	<g>
		<g>
			<path class="st0" d="M388.6,401.3c-3.3-4.4-9.6-5.3-14-2c0,0,0,0,0,0c-4.5,3.3-5.4,9.5-2.1,14c2,2.7,5,4.1,8.1,4.1
				c2.1,0,4.1-0.6,5.9-1.9l0.2-0.2C391,412,391.9,405.7,388.6,401.3z"/>
		</g>
	</g>
	<g>
		<g>
			<path class="st0" d="M365.7,417.5c-2.5-4.9-8.5-6.9-13.5-4.3c-34.2,17.5-63.1,16.8-63.5,16.8c-5.5-0.2-10.1,4.1-10.4,9.6
				c-0.2,5.5,4.1,10.2,9.6,10.4c0.2,0,0.7,0,1.6,0c7.1,0,36.9-1.2,71.8-19C366.2,428.4,368.2,422.4,365.7,417.5z"/>
		</g>
	</g>
	<g>
		<g>
			<path class="st0" d="M186,308l-0.3-0.3c-3.9-3.9-10.2-3.9-14.1,0c-3.9,3.9-3.9,10.2,0,14.1l0.2,0.2c2,2,4.5,3,7.1,3
				c2.5,0,5.1-1,7-2.9C189.9,318.2,189.9,311.9,186,308z"/>
		</g>
	</g>
</g>
</svg>
