<?xml version="1.0" encoding="utf-8"?>
<!-- Generator: Adobe Illustrator 25.2.1, SVG Export Plug-In . SVG Version: 6.00 Build 0)  -->
<svg version="1.1" id="Layer_1" xmlns="http://www.w3.org/2000/svg" xmlns:xlink="http://www.w3.org/1999/xlink" x="0px" y="0px"
	 viewBox="0 0 579.2 544.1" style="enable-background:new 0 0 579.2 544.1;" xml:space="preserve">
<style type="text/css">
	.st0{fill:#0C4C66;}
	.st1{fill-rule:evenodd;clip-rule:evenodd;fill:#0C4C66;}
</style>
<path class="st0" d="M46.4,0L0,107.1l120.6,125.7v121.1c-0.2,6.6,5,12,11.5,12.2c6.6,0.2,12-5,12.2-11.5c0-0.2,0-0.5,0-0.7V225.7
	L27.9,104.1l33-80.3h85.6l24.7,31.9h171c6.3,0,11.3-5.1,11.3-11.3c0-6.3-5.1-11.3-11.3-11.3c0,0,0,0,0,0H186.6L159.8,0L46.4,0z"/>
<path class="st0" d="M92.8,250.9v116.9l109.2,117.5v-75.2L171,379.2V209.8c-11.2-5.6-15.7-19.3-10.1-30.5
	c5.6-11.2,19.3-15.7,30.5-10.1c11.2,5.6,15.7,19.3,10.1,30.5c-2,3.9-5.1,7.2-8.9,9.4v159.6l33,33v139.1L68.9,376V250.9
	c0-6.6,5.3-11.9,11.9-11.9S92.8,244.4,92.8,250.9z"/>
<path class="st0" d="M532.8,0l46.4,107.1l-87.6,92.8v168.4c0.2,6.6-5,12-11.5,12.2c-6.6,0.2-12-5-12.2-11.5c0-0.2,0-0.5,0-0.7V192.6
	l83.5-88.6l-33-80.3h-85.5l-57.7,75.2H130.2c-6.8,10.4-20.8,13.4-31.3,6.5c-10.4-6.8-13.4-20.8-6.5-31.3
	c6.8-10.4,20.8-13.4,31.3-6.5c3.3,2.2,6,5.2,7.8,8.7h228.2l59.8-76.2L532.8,0L532.8,0z"/>
<path class="st1" d="M498.7,86.6c0,12.5-10.1,22.6-22.7,22.6c-1.8,0-3.7-0.2-5.5-0.6L441,138.1v295.7L332.8,544.1h-68v-156
	c-27.1-6.2-46.4-30.4-46.4-58.2c0-2.1,0.1-4.1,0.4-6.2h-0.4v-26.8l0,0c1.1-33,28.8-58.8,61.8-57.7c31.4,1.1,56.6,26.3,57.7,57.7l0,0
	v26.8h-0.4c0.2,2.1,0.4,4.1,0.4,6.2c0,28.6-20.3,53.2-48.4,58.7v131.9h31.9l93.7-97.9V129l38.5-38.5c-0.2-1.3-0.4-2.5-0.4-3.8
	c0-12.5,10.1-22.6,22.7-22.6c12.4-0.2,22.6,9.6,22.8,22C498.7,86.2,498.7,86.4,498.7,86.6z M239.2,320.8c-0.1,1.4-0.2,2.9-0.2,4.3
	c0,23.1,17.5,41.8,39.2,41.8s39.2-18.7,39.2-41.8c0-1.4-0.1-2.9-0.2-4.3h0.2v-18.7l0,0c-0.7-22.4-18-40.4-39.1-40.4
	s-38.4,17.9-39.1,40.4l0,0V320.8z"/>
<path class="st0" d="M395.7,189.6c0,7.7-3.9,14.8-10.3,19V377l-33,33v46.4c-0.2,6.3-5.4,11.2-11.7,11c-6-0.2-10.8-5-11-11v-55.6
	l33-33V209.7c-11.1-5.7-15.6-19.4-9.8-30.5c5.7-11.1,19.4-15.6,30.5-9.8C391,173.2,395.7,181,395.7,189.6L395.7,189.6z"/>
</svg>
