<?xml version="1.0" encoding="utf-8"?>
<!-- Generator: Adobe Illustrator 25.2.1, SVG Export Plug-In . SVG Version: 6.00 Build 0)  -->
<svg version="1.1" id="Layer_1" xmlns="http://www.w3.org/2000/svg" xmlns:xlink="http://www.w3.org/1999/xlink" x="0px" y="0px"
	 viewBox="0 0 2001.6 621.8" style="enable-background:new 0 0 2001.6 621.8;" xml:space="preserve">
<style type="text/css">
	.st0{fill:#F2F3F4;stroke:#0C4C66;stroke-width:2;stroke-miterlimit:10;}
	.st1{fill-rule:evenodd;clip-rule:evenodd;fill:#F2F3F4;stroke:#0C4C66;stroke-width:2;stroke-miterlimit:10;}
	.st2{fill:none;stroke:#0C4C66;stroke-width:2;}
</style>
<path class="st0" d="M46.9,35.5L0,143.9l122.1,127.4v122.6c0,6.6,5.4,12,12,12s12-5.4,12-12V264L28.2,140.9l33.4-81.3h86.6l25,32.3
	h173.1c6.4,0,11.5-5.1,11.5-11.5s-5.1-11.5-11.5-11.5H188.9l-27.2-33.4C161.7,35.5,46.9,35.5,46.9,35.5z"/>
<path class="st0" d="M93.9,289.6V408l110.5,118.9v-76.2l-31.3-31.3V247.9c-11.3-5.7-15.9-19.5-10.2-30.8s19.5-15.9,30.8-10.2
	c7.7,3.9,12.6,11.8,12.6,20.5c0,8.2-4.4,15.8-11.5,19.8v161.6l33.4,33.4V583L69.8,416.2V289.6c0-6.7,5.4-12.1,12-12.1
	C88.5,277.5,93.9,282.9,93.9,289.6L93.9,289.6z"/>
<path class="st0" d="M539.3,35.5l46.9,108.4l-88.7,93.9v170.5c0,6.6-5.4,12-12,12s-12-5.4-12-12V230.5l84.5-89.7l-33.3-81.3h-86.6
	l-58.4,76.2H131.8c-6.9,10.6-21,13.5-31.6,6.6s-13.5-21-6.6-31.6s21-13.5,31.6-6.6c3.4,2.2,6.1,5.3,7.9,8.9h231l60.5-77.2
	L539.3,35.5z"/>
<path class="st1" d="M504.8,123.2c-0.1,12.6-10.3,22.8-22.9,22.9c-1.8,0-3.7-0.2-5.5-0.6l-29.9,29.9v299.3L336.9,586.3H268V428.4
	c-27.5-6.3-46.9-30.8-46.9-59c0-2.1,0.1-4.2,0.4-6.3h-0.4V336l0,0c1.2-33.4,29.3-59.5,62.7-58.3c31.7,1.2,57.1,26.6,58.3,58.3l0,0
	v27.1h-0.4c0.2,2.1,0.4,4.2,0.4,6.3c0,29-20.6,53.9-49,59.4v133.6h32.3l94.9-99.1V166.1l38.9-38.9c-0.2-1.3-0.4-2.5-0.4-3.8
	c0.1-12.6,10.3-22.8,22.9-22.9c12.4-0.3,22.8,9.5,23.1,21.9C504.8,122.7,504.8,122.9,504.8,123.2z M242.2,360.3
	c-0.2,1.5-0.2,2.9-0.2,4.4c0,23.4,17.7,42.3,39.7,42.3s39.7-18.9,39.7-42.3c0-1.5-0.1-2.9-0.2-4.4h0.2v-18.9l0,0
	c-0.7-22.7-18.2-40.9-39.6-40.9s-38.9,18.1-39.6,40.9l0,0L242.2,360.3L242.2,360.3z"/>
<path class="st0" d="M400.6,227.4c0,7.8-4,15-10.5,19.2v170.6l-33.4,33.4v46.9c0,6.4-5.1,11.5-11.5,11.5s-11.5-5.1-11.5-11.5v-56.3
	l33.4-33.4v-160c-11.3-5.8-15.8-19.7-10-31s19.7-15.8,31-10C395.8,210.8,400.6,218.8,400.6,227.4z"/>
<path class="st0" d="M784.4,177.5V67h-35.8v146.6L784.4,177.5z M846,191.8L969.9,67.1h-50.4l-135.1,136l-35.8,35.7v77.7h35.8v-62.4
	l36.2-36.8l98.9,99.2h50.4L846,191.8z"/>
<path class="st0" d="M1088.6,102.7c48.5,0,88.1,40.2,88.1,89.1c0,49.2-39.6,89.1-88.1,89.1c-48.9,0-88.4-39.8-88.4-89.1
	C1000.1,142.9,1039.7,102.7,1088.6,102.7z M964.4,191.8c-0.2,68.7,55.3,124.5,123.9,124.7c0.1,0,0.2,0,0.4,0
	c68.3,0,123.9-55.6,123.9-124.7S1157,67.1,1088.7,67.1C1020,67,964.4,122.6,964.4,191.8z"/>
<path class="st0" d="M1202.8,316.5h47.4l78.7-142.7l-23.5-43.2L1202.8,316.5z M1364.4,109.1l-23.8-42.9l-23.5,42.9l23.5,42.9
	l90.7,164.6h47L1364.4,109.1z"/>
<path class="st0" d="M1550,280.8V65.2h-35.8v251.4h192.9v-35.7L1550,280.8z"/>
<path class="st0" d="M1726.2,316.5h47.4l78.7-142.7l-23.5-43.2L1726.2,316.5z M1887.7,109.1l-23.8-42.9l-23.5,42.9l23.5,42.9
	l90.7,164.6h47L1887.7,109.1z"/>
<path class="st0" d="M842.5,419.4h-45.7v118.4H780V419.4h-45.7v-15h108.2V419.4z"/>
<path class="st0" d="M951.5,522.7v15h-89.9V404.4h88.3v15h-71.4v43.2h62.1v14.1h-62.1v46H951.5z"/>
<path class="st0" d="M963.2,470.2c0-8.1,1.4-16.2,4.1-23.8c2.8-7.8,7-15,12.3-21.4c5.5-6.5,12.3-11.8,20-15.4
	c7.8-3.9,16.7-5.8,26.7-5.8c11.8,0,21.9,2.7,30.4,8.3c8.1,5,14.6,12.2,18.8,20.8l-13.3,8.6c-2.3-5.2-5.7-9.8-10.1-13.4
	c-3.8-3.3-8.3-5.7-13.1-7.1c-4.4-1.4-9-2.1-13.6-2.1c-6.8-0.1-13.5,1.4-19.6,4.5c-5.5,3-10.4,7-14.2,12c-3.9,5.1-6.8,10.8-8.7,16.9
	c-1.9,6-2.8,12.3-2.8,18.6c0,6.8,1.1,13.5,3.4,19.9c2.2,6.2,5.5,11.9,9.7,16.9c4,4.8,9,8.8,14.6,11.6c5.6,3,11.9,4.5,18.3,4.4
	c4.8,0,9.6-0.9,14.2-2.5c5-1.7,9.6-4.2,13.6-7.6c4.4-3.7,7.8-8.3,10.1-13.6l14,7.7c-2.7,6.6-7.1,12.4-12.7,16.9
	c-5.7,4.6-12.2,8.2-19.2,10.6c-6.7,2.3-13.7,3.5-20.7,3.5c-8.7,0.1-17.3-1.9-25-5.8c-7.5-3.9-14.2-9.3-19.7-15.7
	c-5.5-6.6-9.8-14.1-12.8-22.2C964.7,487.1,963.1,478.7,963.2,470.2z"/>
<path class="st0" d="M1205.5,404.4v133.4h-16.8v-60.7h-73v60.7h-16.8V404.4h16.8v57.7h73v-57.7H1205.5z"/>
<path class="st0" d="M1254.1,435.6v102.2h-16.7V404.4h14.2l81,104.3V404.6h16.8v133.2h-15.3L1254.1,435.6z"/>
<path class="st0" d="M1434.6,538.7c-8.8,0.1-17.5-1.8-25.4-5.6c-7.5-3.7-14.2-8.8-19.7-15.2c-5.5-6.5-9.8-13.9-12.7-21.8
	c-3-8-4.5-16.5-4.5-25c-0.1-8.7,1.5-17.3,4.6-25.4c3.1-7.9,7.6-15.3,13.3-21.6c5.6-6.3,12.3-11.4,19.9-15c7.7-3.8,16.2-5.7,24.8-5.6
	c8.8-0.1,17.5,1.8,25.4,5.8c7.5,3.8,14.2,9.1,19.6,15.6c5.5,6.5,9.7,13.8,12.6,21.8c3,7.9,4.5,16.2,4.5,24.6
	c0,8.7-1.5,17.4-4.6,25.6c-3.1,7.9-7.6,15.3-13.3,21.6c-5.5,6.2-12.2,11.3-19.7,14.8C1451.6,536.9,1443.2,538.7,1434.6,538.7z
	 M1389.3,471.1c0,6.7,1.1,13.3,3.2,19.7c2.2,6,5.3,11.7,9.3,16.7c3.9,4.8,8.8,8.8,14.4,11.6c5.8,2.9,12.2,4.4,18.7,4.3
	c6.6,0.1,13.1-1.4,19-4.5c5.5-3,10.3-7.1,14.2-12c4-5,7.1-10.7,8.9-16.9c2.1-6.1,3.2-12.5,3.2-19c0-6.7-1.1-13.3-3.4-19.6
	c-2-6.1-5.2-11.8-9.3-16.7c-3.8-4.9-8.8-8.9-14.4-11.6c-5.7-2.9-11.9-4.4-18.3-4.3c-6.6-0.1-13.1,1.4-19,4.5
	c-5.6,2.9-10.5,6.9-14.4,11.8c-3.9,5.1-6.9,10.8-8.9,16.9C1390.3,458.1,1389.3,464.6,1389.3,471.1L1389.3,471.1z"/>
<path class="st0" d="M1520.4,537.8V404.4h16.8v118.4h73.9v15H1520.4z"/>
<path class="st0" d="M1674.7,538.7c-8.8,0.1-17.5-1.8-25.4-5.6c-7.5-3.7-14.2-8.8-19.7-15.2c-5.5-6.5-9.7-13.8-12.6-21.8
	c-3-8-4.5-16.5-4.5-25c-0.1-8.7,1.5-17.3,4.6-25.4c3.1-7.9,7.6-15.3,13.3-21.6c5.6-6.3,12.4-11.4,20-15c15.9-7.5,34.4-7.5,50.2,0.2
	c7.5,3.8,14.2,9.1,19.6,15.6c5.5,6.5,9.8,13.9,12.7,21.8c3,7.9,4.5,16.2,4.5,24.6c0,8.7-1.5,17.4-4.6,25.6
	c-3.1,7.9-7.6,15.3-13.3,21.6c-5.5,6.2-12.2,11.3-19.7,14.8C1691.9,536.9,1683.4,538.8,1674.7,538.7z M1629.4,471.1
	c0,6.7,1.1,13.3,3.2,19.7c2.2,6.1,5.3,11.7,9.4,16.7c3.9,4.8,8.8,8.8,14.4,11.6c5.8,2.9,12.2,4.4,18.7,4.3c6.6,0.1,13.1-1.4,19-4.5
	c5.5-3,10.4-7,14.2-12c4-5,7-10.8,8.9-16.9c2.1-6.1,3.2-12.5,3.2-19c0-6.7-1.1-13.3-3.4-19.6c-2-6.1-5.2-11.8-9.4-16.7
	c-3.8-4.9-8.8-8.9-14.4-11.6c-5.7-2.9-11.9-4.4-18.3-4.3c-6.6-0.1-13.1,1.4-19,4.5c-5.6,2.9-10.5,6.9-14.4,11.8
	c-3.9,5.1-6.9,10.8-8.9,16.9C1630.4,458.1,1629.4,464.6,1629.4,471.1L1629.4,471.1z"/>
<path class="st0" d="M1813.7,538.7c-8.5,0-16.9-1.9-24.5-5.6c-7.4-3.9-14.1-9.1-19.6-15.4c-5.5-6.5-10-13.9-13.1-21.8
	c-9.3-24.7-4.4-52.5,12.9-72.4c11.2-12.7,27.3-20,44.3-20.1c12.8,0,23.4,2.7,31.8,8.1c8.1,5.1,14.6,12.4,18.8,21l-12.8,9
	c-3.4-7.2-8.9-13.3-15.8-17.3c-6.8-3.7-14.4-5.7-22.2-5.6c-6.4-0.1-12.7,1.4-18.3,4.4c-5.5,2.9-10.3,6.9-14.2,11.8
	c-3.9,5-6.9,10.7-8.9,16.7c-2,6.3-3,13-3,19.6c-0.1,6.9,1.1,13.8,3.4,20.3c2.3,6.1,5.6,11.8,9.9,16.7c4.2,4.7,9.1,8.5,14.7,11.3
	c5.6,2.7,11.8,4.1,18.1,4.1c7.6,0,15.1-2,21.7-5.8c6.8-3.9,13.3-9.8,19.4-17.8v17.5C1844.1,531.6,1830,538.7,1813.7,538.7z
	 M1854,484.1h-28.6v-12.7h42.8v66.5H1854V484.1z"/>
<path class="st0" d="M1893.1,404.4l40.1,69.5l40.5-69.5h18.3l-50.4,84.7v48.7h-16.8v-49l-50.2-84.3h18.5V404.4z"/>
<line class="st2" x1="649.9" y1="0" x2="649.9" y2="621.8"/>
</svg>
