<svg id="Layer_1" data-name="Layer 1" xmlns="http://www.w3.org/2000/svg" viewBox="0 0 2001.6 621.8"><defs><style>.cls-1,.cls-2{fill:#0c4c66;}.cls-2{fill-rule:evenodd;}.cls-3{fill:none;stroke:#0c4c66;}</style></defs><path class="cls-1" d="M261.8,123,214.9,231.4,337,358.8V481.4a12,12,0,0,0,24,0V351.5L243.1,228.4l33.4-81.3h86.6l25,32.3H561.2a11.5,11.5,0,0,0,0-23H403.8L376.6,123Z" transform="translate(-214.9 -87.5)"/><path class="cls-1" d="M308.8,377.1V495.5L419.3,614.4V538.2L388,506.9V335.4a22.92,22.92,0,1,1,33.2-20.5,22.66,22.66,0,0,1-11.5,19.8V496.3l33.4,33.4V670.5L284.7,503.7V377.1a12.05,12.05,0,0,1,24.1,0Z" transform="translate(-214.9 -87.5)"/><path class="cls-1" d="M754.2,123l46.9,108.4-88.7,93.9V495.8a12,12,0,1,1-24,0V318l84.5-89.7L739.6,147H653l-58.4,76.2H346.7a22.82,22.82,0,1,1,1.3-22.7H579l60.5-77.2,114.7-.3Z" transform="translate(-214.9 -87.5)"/><path class="cls-2" d="M719.7,210.7a23,23,0,0,1-22.9,22.9,31.94,31.94,0,0,1-5.5-.6l-29.9,29.9V562.2L551.8,673.8H482.9V515.9a60.5,60.5,0,0,1-46.9-59,44.42,44.42,0,0,1,.4-6.3H436V423.5h0a60.54,60.54,0,0,1,121,0h0v27.1h-.4c.2,2.1.4,4.2.4,6.3a60.53,60.53,0,0,1-49,59.4V649.9h32.3l94.9-99.1V253.6l38.9-38.9a24.5,24.5,0,0,1-.4-3.8A23,23,0,0,1,696.6,188,22.52,22.52,0,0,1,719.7,210.7ZM457.1,447.8a32.4,32.4,0,0,0-.2,4.4c0,23.4,17.7,42.3,39.7,42.3s39.7-18.9,39.7-42.3c0-1.5-.1-2.9-.2-4.4h.2V428.9h0c-.7-22.7-18.2-40.9-39.6-40.9s-38.9,18.1-39.6,40.9h0v18.9Z" transform="translate(-214.9 -87.5)"/><path class="cls-1" d="M615.5,314.9A22.83,22.83,0,0,1,605,334.1V504.7l-33.4,33.4V585a11.5,11.5,0,0,1-23,0V528.7L582,495.3v-160a23,23,0,1,1,33.5-20.4Z" transform="translate(-214.9 -87.5)"/><path class="cls-1" d="M999.3,265V154.5H963.5V301.1Zm61.6,14.3,123.9-124.7h-50.4l-135.1,136-35.8,35.7V404h35.8V341.6l36.2-36.8,98.9,99.2h50.4Z" transform="translate(-214.9 -87.5)"/><path class="cls-1" d="M1303.5,190.2c48.5,0,88.1,40.2,88.1,89.1,0,49.2-39.6,89.1-88.1,89.1-48.9,0-88.4-39.8-88.4-89.1C1215,230.4,1254.6,190.2,1303.5,190.2Zm-124.2,89.1A124.32,124.32,0,0,0,1303.6,404c68.3,0,123.9-55.6,123.9-124.7s-55.6-124.7-123.9-124.7C1234.9,154.5,1179.3,210.1,1179.3,279.3Z" transform="translate(-214.9 -87.5)"/><path class="cls-1" d="M1417.7,404h47.4l78.7-142.7-23.5-43.2Zm161.6-207.4-23.8-42.9L1532,196.6l23.5,42.9,90.7,164.6h47Z" transform="translate(-214.9 -87.5)"/><path class="cls-1" d="M1764.9,368.3V152.7h-35.8V404.1H1922V368.4l-157.1-.1Z" transform="translate(-214.9 -87.5)"/><path class="cls-1" d="M1941.1,404h47.4l78.7-142.7-23.5-43.2Zm161.5-207.4-23.8-42.9-23.5,42.9,23.5,42.9,90.7,164.6h47Z" transform="translate(-214.9 -87.5)"/><path class="cls-1" d="M1057.4,506.9h-45.7V625.3H994.9V506.9H949.2v-15h108.2Z" transform="translate(-214.9 -87.5)"/><path class="cls-1" d="M1166.4,610.2v15h-89.9V491.9h88.3v15h-71.4v43.2h62.1v14.1h-62.1v46Z" transform="translate(-214.9 -87.5)"/><path class="cls-1" d="M1178.1,557.7a71.76,71.76,0,0,1,4.1-23.8,70.22,70.22,0,0,1,12.3-21.4,58.36,58.36,0,0,1,20-15.4c7.8-3.9,16.7-5.8,26.7-5.8,11.8,0,21.9,2.7,30.4,8.3a50.64,50.64,0,0,1,18.8,20.8l-13.3,8.6a36.77,36.77,0,0,0-10.1-13.4,35.76,35.76,0,0,0-13.1-7.1,46.88,46.88,0,0,0-13.6-2.1,41.65,41.65,0,0,0-19.6,4.5,44.39,44.39,0,0,0-14.2,12,53.14,53.14,0,0,0-8.7,16.9,62.63,62.63,0,0,0-2.8,18.6,57.81,57.81,0,0,0,3.4,19.9,55.26,55.26,0,0,0,9.7,16.9,45.73,45.73,0,0,0,14.6,11.6,38.66,38.66,0,0,0,18.3,4.4,43,43,0,0,0,14.2-2.5,41.81,41.81,0,0,0,13.6-7.6,37,37,0,0,0,10.1-13.6l14,7.7a42.05,42.05,0,0,1-12.7,16.9,64.22,64.22,0,0,1-19.2,10.6,62.94,62.94,0,0,1-20.7,3.5,53.82,53.82,0,0,1-25-5.8,67,67,0,0,1-19.7-15.7,76.59,76.59,0,0,1-12.8-22.2A65.36,65.36,0,0,1,1178.1,557.7Z" transform="translate(-214.9 -87.5)"/><path class="cls-1" d="M1420.4,491.9V625.3h-16.8V564.6h-73v60.7h-16.8V491.9h16.8v57.7h73V491.9Z" transform="translate(-214.9 -87.5)"/><path class="cls-1" d="M1469,523.1V625.3h-16.7V491.9h14.2l81,104.3V492.1h16.8V625.3H1549Z" transform="translate(-214.9 -87.5)"/><path class="cls-1" d="M1649.5,626.2a57.69,57.69,0,0,1-25.4-5.6,61,61,0,0,1-19.7-15.2,73.33,73.33,0,0,1-12.7-21.8,71.71,71.71,0,0,1-4.5-25,69.77,69.77,0,0,1,4.6-25.4,71.12,71.12,0,0,1,13.3-21.6,63,63,0,0,1,19.9-15,55.72,55.72,0,0,1,24.8-5.6,54.59,54.59,0,0,1,25.4,5.8,63.21,63.21,0,0,1,19.6,15.6,71,71,0,0,1,12.6,21.8,69.53,69.53,0,0,1,4.5,24.6,71.62,71.62,0,0,1-4.6,25.6A70.83,70.83,0,0,1,1694,606a60.86,60.86,0,0,1-19.7,14.8A58.77,58.77,0,0,1,1649.5,626.2Zm-45.3-67.6a62.53,62.53,0,0,0,3.2,19.7,59,59,0,0,0,9.3,16.7,43.93,43.93,0,0,0,14.4,11.6,39.64,39.64,0,0,0,18.7,4.3,39.23,39.23,0,0,0,19-4.5,45.48,45.48,0,0,0,14.2-12,49.82,49.82,0,0,0,8.9-16.9,59.67,59.67,0,0,0,3.2-19,56.94,56.94,0,0,0-3.4-19.6,50.6,50.6,0,0,0-9.3-16.7,40.42,40.42,0,0,0-14.4-11.6,38.59,38.59,0,0,0-18.3-4.3,39.23,39.23,0,0,0-19,4.5,45.35,45.35,0,0,0-14.4,11.8,58,58,0,0,0-8.9,16.9A56.75,56.75,0,0,0,1604.2,558.6Z" transform="translate(-214.9 -87.5)"/><path class="cls-1" d="M1735.3,625.3V491.9h16.8V610.3H1826v15Z" transform="translate(-214.9 -87.5)"/><path class="cls-1" d="M1889.6,626.2a57.07,57.07,0,0,1-25.4-5.6,61,61,0,0,1-19.7-15.2,71,71,0,0,1-12.6-21.8,71.71,71.71,0,0,1-4.5-25,69.77,69.77,0,0,1,4.6-25.4,71.12,71.12,0,0,1,13.3-21.6,62.27,62.27,0,0,1,20-15,58.12,58.12,0,0,1,50.2.2,63.21,63.21,0,0,1,19.6,15.6,73.33,73.33,0,0,1,12.7,21.8,69.53,69.53,0,0,1,4.5,24.6,71.62,71.62,0,0,1-4.6,25.6,70.83,70.83,0,0,1-13.3,21.6,60.86,60.86,0,0,1-19.7,14.8A59.28,59.28,0,0,1,1889.6,626.2Zm-45.3-67.6a62.53,62.53,0,0,0,3.2,19.7,56.86,56.86,0,0,0,9.4,16.7,43.93,43.93,0,0,0,14.4,11.6,40.22,40.22,0,0,0,18.7,4.3,39.23,39.23,0,0,0,19-4.5,44.39,44.39,0,0,0,14.2-12,51.64,51.64,0,0,0,8.9-16.9,59.67,59.67,0,0,0,3.2-19,56.94,56.94,0,0,0-3.4-19.6,50.84,50.84,0,0,0-9.4-16.7,40.42,40.42,0,0,0-14.4-11.6,38.59,38.59,0,0,0-18.3-4.3,39.23,39.23,0,0,0-19,4.5,45.35,45.35,0,0,0-14.4,11.8,58,58,0,0,0-8.9,16.9A56.75,56.75,0,0,0,1844.3,558.6Z" transform="translate(-214.9 -87.5)"/><path class="cls-1" d="M2028.6,626.2a55.69,55.69,0,0,1-24.5-5.6,66.55,66.55,0,0,1-19.6-15.4,76.73,76.73,0,0,1-13.1-21.8,71.71,71.71,0,0,1,12.9-72.4,59.5,59.5,0,0,1,44.3-20.1q19.2,0,31.8,8.1a51.29,51.29,0,0,1,18.8,21l-12.8,9a39.25,39.25,0,0,0-15.8-17.3,45.19,45.19,0,0,0-22.2-5.6,38.66,38.66,0,0,0-18.3,4.4,44.63,44.63,0,0,0-14.2,11.8A56.91,56.91,0,0,0,1987,539a63.76,63.76,0,0,0-3,19.6,59.67,59.67,0,0,0,3.4,20.3,53.94,53.94,0,0,0,9.9,16.7,49.89,49.89,0,0,0,14.7,11.3,40.75,40.75,0,0,0,18.1,4.1,43.33,43.33,0,0,0,21.7-5.8c6.8-3.9,13.3-9.8,19.4-17.8v17.5C2059,619.1,2044.9,626.2,2028.6,626.2Zm40.3-54.6h-28.6V558.9h42.8v66.5h-14.2Z" transform="translate(-214.9 -87.5)"/><path class="cls-1" d="M2108,491.9l40.1,69.5,40.5-69.5h18.3l-50.4,84.7v48.7h-16.8v-49L2089.5,492H2108Z" transform="translate(-214.9 -87.5)"/><line class="cls-3" x1="649.9" x2="649.9" y2="621.8"/></svg>