<?xml version="1.0" encoding="utf-8"?>
<!-- Generator: Adobe Illustrator 25.2.1, SVG Export Plug-In . SVG Version: 6.00 Build 0)  -->
<svg version="1.1" id="Capa_1" xmlns="http://www.w3.org/2000/svg" xmlns:xlink="http://www.w3.org/1999/xlink" x="0px" y="0px"
	 viewBox="0 0 512 512" style="enable-background:new 0 0 512 512;" xml:space="preserve">
<style type="text/css">
	.st0{fill:#0C4C66;}
</style>
<path class="st0" d="M264.8,17.6c-39.6,0-78.5,9.5-113.5,27.6L110.5,4.4c-3.6-3.6-8.8-5.1-13.8-4.1S87.6,5,85.8,9.8L65.1,65.1
	L9.8,85.8C5,87.6,1.4,91.7,0.3,96.6c-1.1,5,0.4,10.2,4.1,13.8l40.9,40.9c-18.1,34.9-27.6,73.9-27.6,113.5
	C17.6,401.1,128.5,512,264.8,512S512,401.1,512,264.8S401.1,17.6,264.8,17.6z M264.8,346.2c44.9,0,81.4-36.5,81.4-81.4
	s-36.5-81.4-81.4-81.4c-17,0-32.8,5.3-45.9,14.2l-37.8-37.8c23-18.3,52-29.3,83.7-29.3c74,0,134.2,60.2,134.2,134.2
	S338.8,399,264.8,399s-134.2-60.2-134.2-134.2c0-31.6,11-60.7,29.3-83.7l37.8,37.8c-9,13.1-14.2,28.9-14.2,45.9
	C183.5,309.7,220,346.2,264.8,346.2L264.8,346.2z M275.4,254.2l-34.7-34.7c7.2-3.8,15.4-6,24.1-6c28.3,0,51.3,23,51.3,51.3
	s-23,51.3-51.3,51.3c-28.3,0-51.3-23-51.3-51.3c0-8.7,2.2-16.9,6-24.1l34.7,34.7c2.9,2.9,6.8,4.4,10.6,4.4c3.8,0,7.7-1.5,10.6-4.4
	C281.3,269.6,281.3,260.1,275.4,254.2L275.4,254.2z M105.8,42.2l50.5,50.5l-6.5,35.8L94.3,73L105.8,42.2z M42.2,105.8L73,94.3
	l55.5,55.5l-35.8,6.5L42.2,105.8z M264.8,482c-119.7,0-217.2-97.4-217.2-217.2c0-31.5,6.9-62.6,20-91l9.3,9.3
	c2.8,2.8,6.7,4.4,10.6,4.4c0.9,0,1.8-0.1,2.7-0.2l33.1-6c-14.5,24.5-22.9,53.1-22.9,83.6c0,90.6,73.7,164.3,164.3,164.3
	s164.3-73.7,164.3-164.3s-73.7-164.3-164.3-164.3c-30.5,0-59.1,8.4-83.6,22.9l6-33.1c0.9-4.8-0.7-9.8-4.2-13.3l-9.3-9.3
	c28.4-13.2,59.5-20,91-20c119.7,0,217.2,97.4,217.2,217.2C482,384.5,384.5,482,264.8,482L264.8,482z"/>
</svg>
